<?xml version="1.0" encoding="UTF-8" standalone="no"?>
<!-- Created with Inkscape (http://www.inkscape.org/) -->

<svg
   xmlns:dc="http://purl.org/dc/elements/1.1/"
   xmlns:cc="http://creativecommons.org/ns#"
   xmlns:rdf="http://www.w3.org/1999/02/22-rdf-syntax-ns#"
   xmlns:svg="http://www.w3.org/2000/svg"
   xmlns="http://www.w3.org/2000/svg"
   xmlns:sodipodi="http://sodipodi.sourceforge.net/DTD/sodipodi-0.dtd"
   xmlns:inkscape="http://www.inkscape.org/namespaces/inkscape"
   sodipodi:docname="Occams_Logo.svg"
   inkscape:version="0.48.5 r10040"
   version="1.1"
   id="svg4684"
   height="72.084846"
   width="362.64474">
  <sodipodi:namedview
     id="base"
     pagecolor="#ffffff"
     bordercolor="#666666"
     borderopacity="1.0"
     inkscape:pageopacity="0.0"
     inkscape:pageshadow="2"
     inkscape:zoom="1.979899"
     inkscape:cx="207.56408"
     inkscape:cy="-3.9575719"
     inkscape:document-units="px"
     inkscape:current-layer="layer1"
     showgrid="false"
     inkscape:window-width="1440"
     inkscape:window-height="900"
     inkscape:window-x="22"
     inkscape:window-y="64"
     inkscape:window-maximized="0"
     fit-margin-top="0"
     fit-margin-left="0"
     fit-margin-right="0"
     fit-margin-bottom="0"
     showborder="false">
    <inkscape:grid
       id="grid6126"
       type="xygrid"
       empspacing="5"
       visible="true"
       enabled="true"
       snapvisiblegridlinesonly="true"
       originx="-318.67762px"
       originy="-523.95757px" />
  </sodipodi:namedview>
  <defs
     id="defs4686" />
  <metadata
     id="metadata4689">
    <rdf:RDF>
      <cc:Work
         rdf:about="">
        <dc:format>image/svg+xml</dc:format>
        <dc:type
           rdf:resource="http://purl.org/dc/dcmitype/StillImage" />
        <dc:title />
      </cc:Work>
    </rdf:RDF>
  </metadata>
  <g
     inkscape:label="Layer 1"
     inkscape:groupmode="layer"
     id="layer1"
     transform="translate(-318.67762,-456.31976)">
    <g
       id="g7677">
      <g
         transform="translate(25.459382,-64.314706)"
         id="g4113">
        <g
           id="g3936"
           transform="matrix(0.20894717,0,0,0.20894717,368.89501,445.14823)">
          <g
             style="fill:#8d3c30;fill-opacity:1"
             id="g3926" />
          <g
             style="fill:#5071b2;fill-opacity:1"
             id="g3932">
            <path
               style="fill:#e18936;fill-opacity:1"
               d="m 817.47027,533.62089 c 0,0 0,-3.52452 0,-9.50021 0,-2.69966 0,-5.8996 0,-9.50086 0,-2.92075 0,-6.10548 0,-9.50139 0,-3.01298 0,-6.19219 0,-9.50077 0,-3.06561 0,-6.24229 0,-9.50069 0,-3.1012 0,-6.27643 0,-9.50041 0,-3.12882 0,-6.30356 0,-9.50108 0,-3.15218 0,-6.32651 0,-9.50084 0,-3.17435 0,-6.3487 0,-9.5009 0,-3.19765 0,-6.37251 0,-9.50146 0,-3.22445 0,-6.40015 0,-9.5018 0,-3.25862 0,-6.4355 0,-9.5013 0,-3.30841 0,-6.48748 0,-9.50032 0,-3.39567 0,-6.58018 0,-9.50077 0,-3.60105 0,-6.80085 0,-9.50046 0,-5.97642 0,-9.5014 0,-9.5014 0,0 9.9988,0 9.9988,0 0,0 9.9988,0 9.9988,0 0,0 2.9048,2.63692 7.2088,6.54403 2.1226,1.92686 4.5856,4.16265 7.2082,6.54343 2.3195,2.10563 4.764,4.32467 7.2085,6.54371 2.4445,2.21906 4.889,4.43812 7.2086,6.54377 2.6229,2.38107 5.0861,4.61712 7.2089,6.54414 4.3037,3.90675 7.2082,6.54338 7.2082,6.54338 2.2998,2.08774 4.6426,4.21443 7.0084,6.36198 2.3202,2.10618 4.6626,4.23241 7.0083,6.36162 2.3391,2.12319 4.6814,4.24933 7.0084,6.3615 2.3584,2.14066 4.701,4.26696 7.0084,6.36127 2.3806,2.16078 4.7237,4.28751 7.0081,6.36082 2.4099,2.18735 4.7544,4.31525 7.0085,6.36096 2.4542,2.22742 4.8011,4.3574 7.0084,6.36059 2.537,2.30249 4.8896,4.43749 7.0087,6.36041 2.7735,2.51692 5.147,4.67052 7.0101,6.36085 2.3646,2.14541 4.6504,4.21118 6.7839,6.13229 2.5235,2.2722 4.8342,4.34201 6.8109,6.10183 4.0589,3.61342 6.70993,5.91988 6.90523,5.98775 0.1099,0.0382 2.7079,-2.20098 7.2125,-6.19485 2.0059,-1.77853 4.39,-3.90503 7.1007,-6.33332 2.1607,-1.93545 4.5288,-4.06263 7.0786,-6.35816 2.2229,-2.00125 4.5837,-4.13045 7.0653,-6.37211 2.2567,-2.03846 4.6133,-4.16991 7.0567,-6.38272 2.2777,-2.06268 4.6309,-4.19604 7.0491,-6.39066 2.2922,-2.08028 4.6429,-4.21559 7.043,-6.39791 2.3027,-2.09369 4.6509,-4.23064 7.0368,-6.40376 2.3108,-2.10472 4.6569,-4.24336 7.0311,-6.40948 0,0 2.7075,-2.47013 6.9999,-6.38624 2.0211,-1.84393 4.3936,-4.00843 7.0003,-6.38661 2.1911,-1.99902 4.5476,-4.14901 7.0001,-6.38648 2.2698,-2.0708 4.6217,-4.21652 7.0005,-6.38684 2.3245,-2.12071 4.6747,-4.26491 6.9992,-6.38562 2.3786,-2.1701 4.7303,-4.3156 6.9998,-6.3862 2.4525,-2.23751 4.8091,-4.38755 7.0003,-6.38661 2.6067,-2.37819 4.9792,-4.54271 7.0003,-6.38664 4.2922,-3.91601 6.9996,-6.38606 6.9996,-6.38606 0,0 2.625,0.0607 5.25,0.12148 2.625,0.0607 5.25,0.12149 5.25,0.12149 0,0 2.625,0.0607 5.25,0.12149 2.625,0.0607 5.25,0.12148 5.25,0.12148 0,0 0.04,4.29917 0.088,9.57027 0.028,3.07949 0.06,6.49073 0.088,9.57023 0.049,5.27113 0.088,9.57034 0.088,9.57034 0,0 0.04,4.29917 0.088,9.57027 0.028,3.0795 0.06,6.49073 0.088,9.57023 0.049,5.27114 0.088,9.57035 0.088,9.57035 0,0 -8.7652,0.28915 -8.7652,0.28915 0,0 -8.7653,0.28916 -8.7653,0.28916 0,0 -0.1465,3.5 -0.2931,7 -0.1465,3.5 -0.2931,7 -0.2931,7 -0.1353,3.23155 -0.2917,5.94902 -0.5022,8.25596 -0.3246,3.55514 -0.7778,6.13532 -1.4811,8.11949 -1.0505,2.96388 -2.6587,4.59786 -5.229,6.16503 -2.2955,1.39968 -4.8242,1.98487 -7.3162,1.91897 -2.5687,-0.0679 -5.0983,-0.82766 -7.2934,-2.10026 -2.2507,-1.30489 -4.1496,-3.149 -5.3781,-5.33943 -1.2261,-2.18615 -1.7843,-4.71726 -1.3579,-7.40155 0.3781,-2.37987 1.7702,-4.65833 3.805,-6.58407 1.7719,-1.67695 4.0312,-3.08644 6.5328,-4.06251 2.3708,-0.92502 4.9591,-1.46079 7.5563,-1.46605 2.6594,-0.005 2.75,-0.18333 2.75,-5.39859 0,-2.7925 -0.1583,-4.4241 -0.9131,-5.36699 -0.8282,-1.03462 -2.3747,-1.24 -5.2183,-1.24 -2.7657,0 -5.1071,-0.86548 -6.8465,-2.23313 -2.0333,-1.59885 -3.2439,-3.88401 -3.3475,-6.27496 -0.097,-2.23619 0.7742,-4.56493 2.846,-6.51129 1.5851,-1.48912 4.0565,-2.42178 7.1968,-2.71594 3.9517,-0.37017 5.4418,0.002 8.577,2.14366 2.5299,1.72792 4.1926,2.54491 5.8357,2.3887 1.5832,-0.15052 3.1483,-1.20461 5.4533,-3.21797 2.4781,-2.16444 3.5045,-3.58483 2.9401,-5.09271 -0.4527,-1.20935 -1.9286,-2.47499 -4.4997,-4.2259 -2.4113,-1.64218 -5.4609,-2.8035 -8.7988,-3.49823 -3.0096,-0.62639 -6.2536,-0.87347 -9.4758,-0.75169 -3.2391,0.12242 -6.456,0.61759 -9.3904,1.47488 -3.2981,0.96354 -6.2392,2.38452 -8.4537,4.24787 -1.997,1.68035 -3.5618,3.85352 -4.6817,6.25826 -1.1096,2.38257 -1.7825,4.99246 -2.0061,7.57558 -0.2358,2.72328 0.028,5.41681 0.8049,7.78288 0.8642,2.63078 2.3637,4.85672 4.5184,6.26855 0,0 2.2416,1.46877 2.2416,1.46877 0,0 -5.3143,5.31434 -5.3143,5.31434 -2.3641,2.36411 -4.1602,4.8992 -5.3889,7.52596 -1.3677,2.92415 -2.0324,5.96191 -1.9947,9.00384 0.037,3.01931 0.7669,6.04274 2.1873,8.96329 1.2664,2.60361 3.082,5.12546 5.4462,7.48974 2.0696,2.06959 4.369,3.68523 6.9912,4.87588 2.4407,1.10824 5.161,1.84828 8.2362,2.24348 2.5859,0.33233 5.4226,0.42081 8.5548,0.27933 2.615,-0.11812 4.784,-0.29797 6.6534,-0.59318 2.5496,-0.40264 4.542,-1.01988 6.3486,-1.98782 1.8101,-0.96982 3.4337,-2.29171 5.2445,-4.10255 1.9936,-1.99358 3.443,-3.88746 4.5038,-6.13583 0.9636,-2.04242 1.6065,-4.37737 2.0454,-7.34528 0.3195,-2.16036 0.5308,-4.6561 0.679,-7.61853 0.123,-2.457 0.2277,-4.34343 0.3459,-5.79058 0.3463,-4.24146 0.8077,-4.70942 2.1794,-4.70942 0.8458,0 1.334,0.1206 1.6157,9.17155 0.078,2.50533 0.1401,5.6949 0.1896,9.75556 0.034,2.8137 0.063,6.04562 0.086,9.75795 0.018,2.94062 0.034,6.18267 0.046,9.75705 0.011,3.01046 0.02,6.25665 0.027,9.75704 0.01,3.05486 0.012,6.30333 0.016,9.75768 0,3.08538 0.01,6.335 0.01,9.75761 0,3.10748 0,6.35756 0,9.75678 0,3.12453 0,6.37506 0,9.75669 7e-4,3.13817 0,6.38923 0,9.75725 3e-4,3.14912 4e-4,6.40049 5e-4,9.75743 10e-5,3.15811 10e-5,6.40966 10e-5,9.75741 0,0 0,3.67007 0,9.70742 0,2.77745 0,6.05592 0,9.70855 0,3.00633 0,6.26613 0,9.70867 0,3.10498 0,6.35863 0,9.70905 0,3.16424 0,6.41479 0,9.70795 0,3.20906 0,6.45857 0,9.70808 0,3.24956 0,6.49911 0,9.70821 0,3.29322 0,6.54384 0,9.70815 0,3.35049 0,6.60421 0,9.70926 0,3.44256 0,6.70238 0,9.70872 0,3.65232 0,6.93054 0,9.70784 0,6.03775 0,9.7081 0,9.7081 0,0 -3.2213,0.0282 -7.5614,0.0662 -2.309,0.0202 -4.9347,0.0432 -7.5605,0.0662 -2.626,0.023 -5.252,0.046 -7.5613,0.0662 -4.3402,0.038 -7.5616,0.0662 -7.5616,0.0662 0,0 -3.2213,0.0282 -7.5614,0.0662 -2.309,0.0202 -4.9347,0.0432 -7.5605,0.0662 -2.626,0.023 -5.252,0.046 -7.5613,0.0662 -4.3402,0.038 -7.5616,0.0662 -7.5616,0.0662 0,0 -0.01,-3.5524 -0.025,-9.26607 -0.01,-2.66558 -0.016,-5.80154 -0.026,-9.26665 -0.01,-2.8875 -0.016,-6.00355 -0.025,-9.26642 -0.01,-2.9865 -0.017,-6.09601 -0.025,-9.26585 -0.01,-3.05131 -0.017,-6.15853 -0.025,-9.26575 -0.01,-3.10697 -0.017,-6.21394 -0.025,-9.26501 -0.01,-3.17022 -0.017,-6.28009 -0.025,-9.26692 -0.01,-3.26259 -0.018,-6.37836 -0.026,-9.2656 -0.01,-3.46495 -0.018,-6.60076 -0.025,-9.2662 -0.016,-5.71342 -0.025,-9.26564 -0.025,-9.26564 0,0 -0.01,-3.5524 -0.025,-9.26607 -0.01,-2.66558 -0.016,-5.80154 -0.025,-9.26665 -0.01,-2.8875 -0.016,-6.00355 -0.025,-9.26642 -0.01,-2.9865 -0.017,-6.09601 -0.025,-9.26585 -0.01,-3.05131 -0.017,-6.15853 -0.026,-9.26575 -0.01,-3.10697 -0.017,-6.21394 -0.025,-9.26501 -0.01,-3.17022 -0.017,-6.28009 -0.025,-9.26692 -0.01,-3.26259 -0.018,-6.37836 -0.025,-9.2656 -0.01,-3.46495 -0.018,-6.60076 -0.025,-9.2662 -0.016,-5.71342 -0.025,-9.26564 -0.025,-9.26564 0,0 -2.8877,2.62917 -7.1663,6.52477 -2.11,1.9212 -4.5584,4.15041 -7.1655,6.52419 -2.3059,2.09943 -4.7359,4.31194 -7.1659,6.52445 -2.4301,2.21254 -4.8601,4.42507 -7.166,6.52453 -2.6074,2.37406 -5.0561,4.60353 -7.1663,6.52488 -4.2782,3.89525 -7.1655,6.52413 -7.1655,6.52413 -2.4555,2.23568 -4.8682,4.42792 -7.221,6.5615 -2.4852,2.25371 -4.9037,4.44195 -7.235,6.54676 -2.528,2.28224 -4.9535,4.4664 -7.251,6.52957 -2.5998,2.33469 -5.0357,4.51446 -7.2702,6.50613 -2.7666,2.46587 -5.2245,4.64341 -7.3031,6.46965 -4.5702,4.01545 -7.3063,6.33252 -7.4554,6.28185 -0.1481,-0.0503 -2.77023,-2.3609 -7.15093,-6.28693 -2.0117,-1.80293 -4.3943,-3.94654 -7.0785,-6.36838 -2.1696,-1.9576 -4.5363,-4.09699 -7.0635,-6.38519 -2.2345,-2.02322 -4.5945,-4.16278 -7.0546,-6.39588 -2.2705,-2.06096 -4.6263,-4.20159 -7.0475,-6.40399 -2.294,-2.08668 -4.6468,-4.22881 -7.0414,-6.41113 -2.3988,-2.18612 -4.7559,-4.3323 -7.0544,-6.42317 -2.4252,-2.20619 -4.7852,-4.35082 -7.0599,-6.41585 -2.4643,-2.23722 -4.8286,-4.38102 -7.0673,-6.40845 -2.5315,-2.29265 -4.9026,-4.4365 -7.0763,-6.39839 -2.6888,-2.42683 -5.0757,-4.57522 -7.0911,-6.38241 -4.3738,-3.92212 -6.9977,-6.23711 -7.16,-6.30331 -0.1271,-0.0518 -0.2568,3.23629 -0.3807,9.12938 -0.054,2.57398 -0.1071,5.64493 -0.1583,9.1516 -0.041,2.78587 -0.08,5.84675 -0.1181,9.15193 -0.033,2.87288 -0.065,5.93033 -0.095,9.15218 -0.028,2.92069 -0.054,5.9765 -0.079,9.15238 -0.023,2.95093 -0.046,6.00553 -0.067,9.15175 -0.02,2.97222 -0.039,6.02622 -0.056,9.15181 -0.017,2.98854 -0.032,6.04254 -0.046,9.15312 -0.014,3.00067 -0.026,6.054 -0.038,9.15201 -0.011,3.0115 -0.021,6.06522 -0.03,9.15384 0,0 -0.01,3.52063 -0.025,9.18322 -0.01,2.64174 -0.016,5.74967 -0.025,9.18379 -0.01,2.86168 -0.016,5.94986 -0.025,9.18356 -0.01,2.9598 -0.017,6.0415 -0.025,9.183 -0.01,3.02403 -0.017,6.10347 -0.025,9.1829 -0.01,3.07919 -0.017,6.15838 -0.026,9.18217 -0.01,3.14187 -0.017,6.22393 -0.025,9.18405 -0.01,3.23342 -0.018,6.32133 -0.025,9.18275 -0.01,3.43397 -0.018,6.54174 -0.025,9.18335 -0.016,5.66233 -0.025,9.18279 -0.025,9.18279 0,0 -3.2219,0.0282 -7.5626,0.0662 -2.3095,0.0202 -4.9357,0.0432 -7.5619,0.0662 -2.6264,0.023 -5.2529,0.046 -7.5626,0.0662 -4.3409,0.038 -7.5629,0.0662 -7.5629,0.0662 0,0 -3.2219,0.0282 -7.5626,0.0662 -2.3095,0.0202 -4.9357,0.0432 -7.5619,0.0662 -2.6264,0.023 -5.2529,0.046 -7.5626,0.0662 -4.3409,0.038 -7.5629,0.0662 -7.5629,0.0662 0,0 0,-3.52452 0,-9.50021 0,-2.69966 0,-5.8996 0,-9.50086 0,-2.92075 0,-6.10548 0,-9.50139 0,-3.01298 0,-6.19219 0,-9.50077 0,-3.06561 0,-6.24229 0,-9.50069 0,-3.1012 0,-6.27644 0,-9.50042 0,-3.12882 0,-6.30355 0,-9.50107 0,-3.15218 0,-6.32651 0,-9.50085 0,-3.17434 0,-6.34869 0,-9.5009 0,-3.19765 0,-6.37251 0,-9.50146 0,-3.22445 0,-6.40015 0,-9.5018 0,-3.25862 0,-6.43549 0,-9.5013 0,-3.30841 0,-6.48748 0,-9.50032 0,-3.39566 0,-6.58018 0,-9.50077 0,-3.60105 0,-6.80085 0,-9.50046 0,-5.97642 0,-9.5014 0,-9.5014 0,0 0,0 0,0"
               id="path3866"
               inkscape:connector-curvature="0" />
          </g>
        </g>
        <g
           id="g3991"
           transform="translate(146.74612,282.45524)">
          <g
             transform="matrix(1.0786839,0,0,1.1015919,-32.889189,-29.685641)"
             id="text3027"
             style="font-size:81.6158905px;font-style:normal;font-variant:normal;font-weight:normal;font-stretch:normal;text-align:start;line-height:125%;letter-spacing:0px;word-spacing:0px;writing-mode:lr-tb;text-anchor:start;fill:#902c10;fill-opacity:1;stroke:none;font-family:Jaapokki;-inkscape-font-specification:Jaapokki">
            <path
               inkscape:connector-curvature="0"
               id="path3838"
               d="m 199.17464,246.38148 c -0.87464,0.0224 -1.73404,0.074 -2.57821,0.15491 -0.86955,0.0833 -1.72294,0.1977 -2.56015,0.34311 -0.85874,0.14916 -1.70047,0.33098 -2.52519,0.54546 -0.84068,0.21863 -1.66369,0.4712 -2.46902,0.75772 -0.81564,0.29018 -1.61315,0.61518 -2.39252,0.97499 -0.78242,0.36122 -1.54656,0.75753 -2.29243,1.18892 -0.74307,0.42978 -1.468,0.89439 -2.17479,1.39382 -0.69849,0.49357 -1.37927,1.02114 -2.04232,1.58274 -0.65023,0.55072 -1.28342,1.13416 -1.89957,1.75031 -0.616,0.616 -1.1993,1.24903 -1.74991,1.89909 -0.56166,0.66311 -1.08931,1.34394 -1.58293,2.04248 -0.49944,0.70678 -0.96406,1.43171 -1.39385,2.17477 -0.43155,0.7461 -0.82799,1.51049 -1.18932,2.29318 -0.35961,0.77896 -0.68444,1.57604 -0.9745,2.39124 -0.28667,0.8057 -0.53937,1.6291 -0.7581,2.47019 -0.21446,0.82465 -0.39625,1.6663 -0.54539,2.52496 -0.14538,0.83706 -0.25973,1.69029 -0.34305,2.55969 -0.0809,0.84429 -0.13256,1.70383 -0.15493,2.57861 0.0224,0.87481 0.074,1.73437 0.15493,2.57868 0.0833,0.86972 0.19776,1.72325 0.34322,2.56061 0.1492,0.8589 0.33108,1.70077 0.54564,2.52562 0.21865,0.84059 0.47123,1.6635 0.75774,2.46874 0.29019,0.81556 0.61519,1.61298 0.97499,2.39227 0.36122,0.78233 0.75751,1.5464 1.18889,2.29219 0.42976,0.74299 0.89434,1.46785 1.39375,2.17457 0.49354,0.69842 1.02108,1.37913 1.58263,2.04212 0.55069,0.65017 1.13409,1.2833 1.75019,1.8994 0.61599,0.616 1.24902,1.1993 1.89907,1.74991 0.6631,0.56166 1.34392,1.0893 2.04247,1.58292 0.70677,0.49945 1.43169,0.96406 2.17475,1.39385 0.7461,0.43155 1.51049,0.82799 2.29317,1.18932 0.77897,0.35961 1.57605,0.68444 2.39125,0.9745 0.8057,0.28667 1.6291,0.53938 2.47019,0.75811 0.82465,0.21445 1.6663,0.39624 2.52497,0.54538 0.83707,0.14539 1.6903,0.25974 2.5597,0.34306 0.8443,0.0809 1.70384,0.13255 2.57863,0.15493 0.8748,-0.0224 1.73436,-0.074 2.57867,-0.15494 0.86971,-0.0833 1.72324,-0.19775 2.56059,-0.34322 0.85889,-0.1492 1.70076,-0.33108 2.52561,-0.54563 0.84059,-0.21865 1.66351,-0.47124 2.46874,-0.75775 0.81556,-0.29019 1.61298,-0.61518 2.39227,-0.97499 0.78234,-0.36121 1.5464,-0.75751 2.29219,-1.18889 0.743,-0.42976 1.46787,-0.89434 2.17459,-1.39374 0.69843,-0.49354 1.37914,-1.02108 2.04213,-1.58264 0.65018,-0.55069 1.28332,-1.13408 1.89942,-1.75018 0.61599,-0.61599 1.19929,-1.24902 1.74989,-1.89908 0.56165,-0.6631 1.08929,-1.34392 1.58291,-2.04246 0.49944,-0.70678 0.96405,-1.4317 1.39384,-2.17476 0.43154,-0.7461 0.82798,-1.51049 1.18931,-2.29317 0.35961,-0.77897 0.68444,-1.57605 0.9745,-2.39125 0.28668,-0.8057 0.53938,-1.6291 0.75812,-2.47019 0.21445,-0.82464 0.39625,-1.6663 0.54539,-2.52497 0.14539,-0.83706 0.25975,-1.69029 0.34307,-2.55969 0.0809,-0.8443 0.13257,-1.70384 0.15495,-2.57863 -0.0224,-0.8748 -0.074,-1.73436 -0.15495,-2.57867 -0.0834,-0.86971 -0.19777,-1.72324 -0.34324,-2.5606 -0.14921,-0.85889 -0.33109,-1.70076 -0.54565,-2.52561 -0.21865,-0.84059 -0.47123,-1.6635 -0.75775,-2.46874 -0.29019,-0.81555 -0.61518,-1.61297 -0.97499,-2.39226 -0.36121,-0.78234 -0.75751,-1.54641 -1.18888,-2.2922 -0.42976,-0.743 -0.89434,-1.46786 -1.39374,-2.17458 -0.49353,-0.69843 -1.02107,-1.37914 -1.58262,-2.04214 -0.55068,-0.65017 -1.13407,-1.28331 -1.75016,-1.89941 -0.616,-0.61599 -1.24903,-1.19929 -1.8991,-1.74989 -0.6631,-0.56166 -1.34393,-1.0893 -2.04248,-1.58291 -0.70678,-0.49944 -1.4317,-0.96406 -2.17476,-1.39384 -0.74611,-0.43155 -1.5105,-0.82799 -2.29318,-1.18932 -0.77897,-0.35961 -1.57605,-0.68444 -2.39125,-0.9745 -0.8057,-0.28668 -1.6291,-0.53938 -2.47019,-0.75811 -0.82464,-0.21446 -1.66629,-0.39625 -2.52496,-0.5454 -0.83706,-0.14539 -1.69029,-0.25974 -2.55968,-0.34306 -0.84429,-0.0809 -1.70383,-0.13257 -2.57861,-0.15495 0,0 0,0 0,0 m 0,11.75254 c 0.79798,0.0201 1.57481,0.0803 2.33051,0.18069 0.78826,0.10468 1.55351,0.25303 2.29577,0.44505 0.76432,0.19772 1.50425,0.44175 2.21979,0.73207 0.72502,0.29417 1.42501,0.63588 2.09995,1.02512 0.67196,0.38753 1.3191,0.82218 1.94142,1.30394 0.60791,0.4706 1.19213,0.98616 1.75266,1.54668 0.56048,0.5605 1.07601,1.14468 1.54659,1.75254 0.48143,0.62189 0.91582,1.26856 1.30315,1.94002 0.3896,0.67541 0.7316,1.3759 1.026,2.10147 0.29045,0.71585 0.53456,1.45612 0.73233,2.2208 0.19182,0.74168 0.34005,1.50632 0.44468,2.29393 0.10043,0.75596 0.1607,1.53307 0.1808,2.33134 -0.0201,0.79799 -0.0803,1.57483 -0.18069,2.33053 -0.10468,0.78827 -0.25303,1.55353 -0.44505,2.29578 -0.19772,0.76433 -0.44175,1.50426 -0.73207,2.2198 -0.29418,0.72502 -0.63589,1.425 -1.02513,2.09994 -0.38753,0.67196 -0.82217,1.3191 -1.30393,1.94141 -0.4706,0.6079 -0.98616,1.19211 -1.54668,1.75263 -0.5605,0.56049 -1.14468,1.07603 -1.75254,1.54662 -0.62189,0.48144 -1.26856,0.91583 -1.94003,1.30316 -0.6754,0.38961 -1.37589,0.73161 -2.10146,1.02601 -0.71586,0.29045 -1.45613,0.53456 -2.22081,0.73233 -0.74168,0.19181 -1.50632,0.34004 -2.29393,0.44466 -0.75595,0.10042 -1.53306,0.16068 -2.33133,0.18078 -0.79799,-0.0201 -1.57483,-0.0803 -2.33053,-0.18067 -0.78827,-0.10468 -1.55353,-0.25302 -2.29579,-0.44504 -0.76433,-0.19772 -1.50426,-0.44174 -2.2198,-0.73206 -0.72502,-0.29418 -1.425,-0.63589 -2.09994,-1.02513 -0.67196,-0.38753 -1.3191,-0.82218 -1.94141,-1.30395 -0.6079,-0.47061 -1.19211,-0.98618 -1.75263,-1.54671 -0.56049,-0.56049 -1.07603,-1.14466 -1.54661,-1.75251 -0.48144,-0.62188 -0.91583,-1.26855 -1.30317,-1.94001 -0.38961,-0.67541 -0.73161,-1.37589 -1.026,-2.10146 -0.29045,-0.71586 -0.53456,-1.45613 -0.73233,-2.22081 -0.19182,-0.74168 -0.34004,-1.50633 -0.44467,-2.29394 -0.10042,-0.75596 -0.16067,-1.53308 -0.18077,-2.33136 0.0201,-0.79798 0.0803,-1.57482 0.18066,-2.33051 0.10468,-0.78826 0.25303,-1.55352 0.44504,-2.29577 0.19772,-0.76432 0.44175,-1.50425 0.73207,-2.21979 0.29417,-0.72503 0.63588,-1.42501 1.02513,-2.09995 0.38753,-0.67196 0.82218,-1.3191 1.30395,-1.94142 0.47061,-0.60791 0.98618,-1.19213 1.54671,-1.75266 0.56049,-0.56048 1.14466,-1.07602 1.75251,-1.54659 0.62188,-0.48144 1.26855,-0.91582 1.94001,-1.30315 0.6754,-0.38961 1.37588,-0.73161 2.10145,-1.026 0.71586,-0.29045 1.45613,-0.53456 2.22081,-0.73233 0.74169,-0.19183 1.50633,-0.34005 2.29395,-0.44468 0.75596,-0.10043 1.53308,-0.1607 2.33136,-0.1808 0,0 0,0 0,0" />
            <path
               inkscape:connector-curvature="0"
               id="path3840"
               d="m 280.12147,252.95137 c -0.63926,-0.49585 -1.29588,-0.96408 -1.96984,-1.40468 -0.67521,-0.44141 -1.36783,-0.8551 -2.07786,-1.24105 -0.70666,-0.38412 -1.43057,-0.74077 -2.17173,-1.06996 -0.73252,-0.32535 -1.48189,-0.62386 -2.24811,-0.89555 -0.78585,-0.27861 -1.58285,-0.52243 -2.39101,-0.73146 -0.80402,-0.20796 -1.61908,-0.38149 -2.44519,-0.52059 -0.81601,-0.1374 -1.64279,-0.2412 -2.48035,-0.31141 -0.82216,-0.0689 -1.65471,-0.10547 -2.49763,-0.10964 -0.98613,0.0252 -1.95289,0.0876 -2.90028,0.18727 -0.97883,0.10292 -1.93698,0.24554 -2.87445,0.42787 -0.96313,0.18732 -1.90443,0.41654 -2.8239,0.68766 -0.9368,0.27624 -1.85094,0.59598 -2.74242,0.95922 -0.90014,0.36676 -1.77718,0.77788 -2.63111,1.23334 -0.85286,0.4549 -1.68267,0.95402 -2.48943,1.49739 -0.79768,0.53724 -1.57283,1.11774 -2.32546,1.74147 -0.73734,0.61108 -1.45306,1.26367 -2.14716,1.95776 -0.69415,0.69415 -1.34678,1.40993 -1.9579,2.14733 -0.62384,0.75276 -1.20443,1.52806 -1.74175,2.32589 -0.54331,0.80672 -1.04239,1.63649 -1.49724,2.4893 -0.45542,0.85389 -0.8665,1.73087 -1.23324,2.63096 -0.36331,0.89169 -0.6831,1.80605 -0.95937,2.74308 -0.27108,0.91942 -0.50025,1.86066 -0.68753,2.82374 -0.18232,0.93759 -0.32493,1.89588 -0.42783,2.87485 -0.0995,0.94699 -0.16191,1.91335 -0.18712,2.89906 0.0252,0.98613 0.0876,1.95289 0.18725,2.90028 0.10291,0.97883 0.24553,1.93698 0.42785,2.87444 0.18731,0.96313 0.41653,1.90443 0.68766,2.8239 0.27623,0.9368 0.59597,1.85094 0.95921,2.74242 0.36676,0.90013 0.77788,1.77717 1.23335,2.63111 0.45489,0.85285 0.95402,1.68266 1.49739,2.48943 0.53725,0.79768 1.11775,1.57283 1.74149,2.32545 0.61109,0.73735 1.26368,1.45307 1.95778,2.14717 0.69414,0.69415 1.40991,1.34678 2.14731,1.95789 0.75275,0.62385 1.52804,1.20443 2.32587,1.74175 0.80672,0.54332 1.63648,1.0424 2.48929,1.49724 0.85389,0.45543 1.73087,0.8665 2.63096,1.23324 0.89169,0.36331 1.80605,0.6831 2.74308,0.95937 0.91942,0.27108 1.86067,0.50026 2.82375,0.68754 0.9376,0.18232 1.89589,0.32493 2.87487,0.42783 0.947,0.0995 1.91336,0.16191 2.89908,0.18712 0.88128,-0.005 1.7507,-0.0452 2.60827,-0.12075 0.87571,-0.0771 1.73907,-0.19101 2.59007,-0.34168 0.862,-0.15262 1.71132,-0.34297 2.54796,-0.57107 0.84155,-0.22943 1.67027,-0.49704 2.48616,-0.80283 0.79394,-0.29758 1.56887,-0.62383 2.32479,-0.97875 0.76493,-0.35916 1.5104,-0.74768 2.2364,-1.16556 0.73018,-0.42029 1.44068,-0.87028 2.13148,-1.34997 0.68945,-0.47876 1.35929,-0.9871 2.00951,-1.52503 0,0 -0.78263,-0.89567 -1.83696,-2.10229 -0.56092,-0.64195 -1.19874,-1.3719 -1.83653,-2.10181 -0.63742,-0.7295 -1.27481,-1.45895 -1.83536,-2.10047 -1.0541,-1.20635 -1.83649,-2.10176 -1.83649,-2.10176 -0.71785,0.51582 -1.44726,0.97534 -2.18823,1.37855 -0.77156,0.41986 -1.55565,0.77866 -2.35228,1.07641 -0.81435,0.30439 -1.64181,0.54497 -2.48236,0.72175 -0.84155,0.17699 -1.69622,0.29003 -2.56402,0.33912 -0.84936,0.048 -1.7113,0.0348 -2.58581,-0.0396 -0.85977,-0.0732 -1.69639,-0.19851 -2.50987,-0.37588 -0.83645,-0.18239 -1.64842,-0.41983 -2.43593,-0.71234 -0.79447,-0.2951 -1.56403,-0.64623 -2.30868,-1.05341 -0.73545,-0.40215 -1.44661,-0.85896 -2.13347,-1.37044 -0.66702,-0.4967 -1.31113,-1.04497 -1.93233,-1.64478 -0.67669,-0.65338 -1.28472,-1.35956 -1.8241,-2.11854 -0.5355,-0.75353 -1.00332,-1.5591 -1.40348,-2.41671 -0.38536,-0.82592 -0.70796,-1.70011 -0.96779,-2.62256 -0.24491,-0.8695 -0.43406,-1.78189 -0.56745,-2.73716 -0.12456,-0.89212 -0.20049,-1.82165 -0.22778,-2.78858 0.0249,-0.93046 0.0971,-1.82634 0.21653,-2.68765 0.12748,-0.91951 0.30877,-1.79961 0.54389,-2.6403 0.24826,-0.88769 0.55653,-1.73145 0.92481,-2.53127 0.38094,-0.8273 0.82607,-1.60759 1.33542,-2.34087 0.51133,-0.73615 1.08738,-1.42492 1.72813,-2.06632 0.59506,-0.59565 1.21394,-1.14297 1.85664,-1.64195 0.66007,-0.51247 1.34527,-0.97396 2.0556,-1.38446 0.71692,-0.41432 1.45944,-0.7767 2.22755,-1.08715 0.76036,-0.30731 1.54581,-0.56373 2.35634,-0.76926 0.78866,-0.19999 1.60107,-0.35179 2.43723,-0.4554 0.85357,-0.10575 1.69864,-0.15353 2.53523,-0.14333 0.85205,0.0104 1.6953,0.0809 2.52974,0.21159 0.8333,0.13049 1.65781,0.32096 2.47354,0.5714 0.79914,0.24535 1.58985,0.54826 2.37214,0.90873 0.75378,0.34733 1.49974,0.74811 2.23787,1.20233 0,0 0.78263,-0.90437 1.83696,-2.1227 0.56092,-0.64818 1.19874,-1.38522 1.83653,-2.12222 0.63742,-0.73657 1.27481,-1.47311 1.83536,-2.12086 1.0541,-1.21806 1.83649,-2.12216 1.83649,-2.12216" />
            <path
               inkscape:connector-curvature="0"
               id="path3842"
               d="m 329.99056,252.95137 c -0.63926,-0.49585 -1.29588,-0.96408 -1.96984,-1.40468 -0.67521,-0.44141 -1.36783,-0.8551 -2.07786,-1.24105 -0.70666,-0.38412 -1.43057,-0.74077 -2.17173,-1.06996 -0.73252,-0.32535 -1.48189,-0.62386 -2.24811,-0.89555 -0.78585,-0.27861 -1.58285,-0.52243 -2.39101,-0.73146 -0.80402,-0.20796 -1.61908,-0.38149 -2.44519,-0.52059 -0.81601,-0.1374 -1.64279,-0.2412 -2.48035,-0.31141 -0.82216,-0.0689 -1.65471,-0.10547 -2.49763,-0.10964 -0.98613,0.0252 -1.95289,0.0876 -2.90028,0.18727 -0.97883,0.10292 -1.93698,0.24554 -2.87445,0.42787 -0.96313,0.18732 -1.90443,0.41654 -2.82389,0.68766 -0.9368,0.27624 -1.85094,0.59598 -2.74242,0.95922 -0.90014,0.36676 -1.77718,0.77788 -2.63112,1.23334 -0.85285,0.4549 -1.68266,0.95402 -2.48943,1.49739 -0.79768,0.53724 -1.57283,1.11774 -2.32545,1.74147 -0.73735,0.61108 -1.45307,1.26367 -2.14717,1.95776 -0.69415,0.69415 -1.34678,1.40993 -1.95789,2.14733 -0.62385,0.75276 -1.20443,1.52806 -1.74176,2.32589 -0.54331,0.80672 -1.04239,1.63649 -1.49724,2.4893 -0.45542,0.85389 -0.8665,1.73087 -1.23323,2.63096 -0.36332,0.89169 -0.68311,1.80605 -0.95938,2.74308 -0.27108,0.91942 -0.50025,1.86066 -0.68753,2.82374 -0.18232,0.93759 -0.32493,1.89588 -0.42783,2.87485 -0.0995,0.94699 -0.16191,1.91335 -0.18712,2.89906 0.0252,0.98613 0.0876,1.95289 0.18725,2.90028 0.10291,0.97883 0.24553,1.93698 0.42785,2.87444 0.18731,0.96313 0.41653,1.90443 0.68766,2.8239 0.27623,0.9368 0.59597,1.85094 0.95921,2.74242 0.36676,0.90013 0.77788,1.77717 1.23335,2.63111 0.45489,0.85285 0.95402,1.68266 1.49739,2.48943 0.53725,0.79768 1.11775,1.57283 1.74149,2.32545 0.61109,0.73735 1.26368,1.45307 1.95778,2.14717 0.69414,0.69415 1.40991,1.34678 2.14731,1.95789 0.75275,0.62385 1.52804,1.20443 2.32587,1.74175 0.80672,0.54332 1.63649,1.0424 2.48929,1.49724 0.85389,0.45543 1.73088,0.8665 2.63096,1.23324 0.89169,0.36331 1.80605,0.6831 2.74309,0.95937 0.91942,0.27108 1.86067,0.50026 2.82374,0.68754 0.9376,0.18232 1.89589,0.32493 2.87487,0.42783 0.947,0.0995 1.91336,0.16191 2.89908,0.18712 0.88128,-0.005 1.7507,-0.0452 2.60827,-0.12075 0.87571,-0.0771 1.73907,-0.19101 2.59007,-0.34168 0.862,-0.15262 1.71132,-0.34297 2.54796,-0.57107 0.84155,-0.22943 1.67027,-0.49704 2.48616,-0.80283 0.79394,-0.29758 1.56887,-0.62383 2.32479,-0.97875 0.76493,-0.35916 1.5104,-0.74768 2.2364,-1.16556 0.73018,-0.42029 1.44068,-0.87028 2.13148,-1.34997 0.68945,-0.47876 1.35929,-0.9871 2.00951,-1.52503 0,0 -0.78263,-0.89567 -1.83696,-2.10229 -0.56092,-0.64195 -1.19874,-1.3719 -1.83653,-2.10181 -0.63742,-0.7295 -1.27481,-1.45895 -1.83536,-2.10047 -1.0541,-1.20635 -1.83649,-2.10176 -1.83649,-2.10176 -0.71785,0.51582 -1.44726,0.97534 -2.18823,1.37855 -0.77156,0.41986 -1.55565,0.77866 -2.35228,1.07641 -0.81435,0.30439 -1.64181,0.54497 -2.48236,0.72175 -0.84155,0.17699 -1.69622,0.29003 -2.56402,0.33912 -0.84936,0.048 -1.7113,0.0348 -2.58581,-0.0396 -0.85977,-0.0732 -1.69639,-0.19851 -2.50987,-0.37588 -0.83645,-0.18239 -1.64842,-0.41983 -2.43593,-0.71234 -0.79447,-0.2951 -1.56403,-0.64623 -2.30868,-1.05341 -0.73545,-0.40215 -1.44661,-0.85896 -2.13347,-1.37044 -0.66702,-0.4967 -1.31113,-1.04497 -1.93233,-1.64478 -0.67669,-0.65338 -1.28472,-1.35956 -1.8241,-2.11854 -0.5355,-0.75353 -1.00332,-1.5591 -1.40347,-2.41671 -0.38537,-0.82592 -0.70796,-1.70011 -0.9678,-2.62256 -0.24491,-0.8695 -0.43406,-1.78189 -0.56744,-2.73716 -0.12456,-0.89212 -0.20049,-1.82165 -0.22778,-2.78858 0.0249,-0.93046 0.0971,-1.82634 0.21653,-2.68765 0.12747,-0.91951 0.30876,-1.79961 0.54388,-2.6403 0.24826,-0.88769 0.55653,-1.73145 0.92481,-2.53127 0.38094,-0.8273 0.82607,-1.60759 1.33542,-2.34087 0.51133,-0.73615 1.08738,-1.42492 1.72813,-2.06632 0.59506,-0.59565 1.21394,-1.14297 1.85664,-1.64195 0.66007,-0.51247 1.34527,-0.97396 2.0556,-1.38446 0.71692,-0.41432 1.45944,-0.7767 2.22755,-1.08715 0.76037,-0.30731 1.54582,-0.56373 2.35634,-0.76926 0.78867,-0.19999 1.60108,-0.35179 2.43723,-0.4554 0.85357,-0.10575 1.69864,-0.15353 2.53523,-0.14333 0.85205,0.0104 1.6953,0.0809 2.52974,0.21159 0.8333,0.13049 1.65781,0.32096 2.47355,0.5714 0.79914,0.24535 1.58985,0.54826 2.37213,0.90873 0.75379,0.34733 1.49975,0.74811 2.23788,1.20233 0,0 0.78263,-0.90437 1.83695,-2.1227 0.56092,-0.64818 1.19875,-1.38522 1.83653,-2.12222 0.63743,-0.73657 1.27481,-1.47311 1.83537,-2.12086 1.05409,-1.21806 1.83648,-2.12216 1.83648,-2.12216" />
            <path
               inkscape:connector-curvature="0"
               id="path3844"
               d="m 378.20432,304.77679 c 0,0 1.04279,0 2.52957,0 0.75528,0 1.62514,0 2.53108,0 0.83324,0 1.697,0 2.53021,0 0.90524,0 1.77442,0 2.52921,0 1.48713,0 2.53023,0 2.53023,0 0,0 -0.44762,-0.94798 -1.22762,-2.59989 -0.34689,-0.73465 -0.75952,-1.60853 -1.22775,-2.60016 -0.37529,-0.7948 -0.7863,-1.66525 -1.22782,-2.60029 -0.38707,-0.81976 -0.79759,-1.68917 -1.22804,-2.60078 -0.39364,-0.83366 -0.80395,-1.70262 -1.22823,-2.60117 -0.39773,-0.84233 -0.80774,-1.71066 -1.22782,-2.60031 -0.40082,-0.84888 -0.81081,-1.71716 -1.22804,-2.60078 -0.40308,-0.85365 -0.81291,-1.72161 -1.22777,-2.6002 -0.40503,-0.85778 -0.81484,-1.72569 -1.22782,-2.60032 -0.40683,-0.86158 -0.81672,-1.72967 -1.22815,-2.60101 -0.40818,-0.86443 -0.81786,-1.73207 -1.22754,-2.5997 -0.40975,-0.86778 -0.8195,-1.73555 -1.22774,-2.60014 -0.41125,-0.87096 -0.82097,-1.73868 -1.22762,-2.59989 -0.41301,-0.87467 -0.82284,-1.74263 -1.22789,-2.60046 -0.41511,-0.87912 -0.82519,-1.7476 -1.22851,-2.60176 -0.41731,-0.8838 -0.82739,-1.75226 -1.22829,-2.60131 -0.42023,-0.88996 -0.83038,-1.75858 -1.22824,-2.60119 -0.42421,-0.8984 -0.83445,-1.76721 -1.22803,-2.60074 -0.43041,-0.91155 -0.8409,-1.7809 -1.22796,-2.60062 -0.44151,-0.93504 -0.85252,-1.80549 -1.22782,-2.60031 -0.46836,-0.99191 -0.8811,-1.86602 -1.22808,-2.60084 -0.78007,-1.65206 -1.22773,-2.60013 -1.22773,-2.60013 0,0 -0.83655,0 -1.6731,0 -0.83656,0 -1.67311,0 -1.67311,0 0,0 -0.48278,0.94798 -1.32405,2.59989 -0.37414,0.73465 -0.81918,1.60853 -1.32419,2.60016 -0.40477,0.7948 -0.84807,1.66525 -1.32426,2.60029 -0.41748,0.81976 -0.86024,1.68917 -1.3245,2.60078 -0.42456,0.83366 -0.8671,1.70262 -1.32471,2.60117 -0.42897,0.84233 -0.87119,1.71066 -1.32426,2.60031 -0.43231,0.84888 -0.87451,1.71716 -1.32451,2.60078 -0.43474,0.85365 -0.87676,1.72161 -1.32421,2.6002 -0.43684,0.85778 -0.87885,1.72569 -1.32427,2.60032 -0.43878,0.86158 -0.88087,1.72967 -1.32462,2.60101 -0.44023,0.86443 -0.8821,1.73207 -1.32396,2.5997 -0.44193,0.86778 -0.88387,1.73555 -1.32418,2.60014 -0.44355,0.87096 -0.88546,1.73868 -1.32405,2.59989 -0.44544,0.87467 -0.88747,1.74263 -1.32434,2.60046 -0.44754,0.87877 -0.88966,1.74692 -1.32449,2.60076 -0.45012,0.88383 -0.89242,1.75234 -1.32484,2.60143 -0.45326,0.89 -0.89565,1.75867 -1.32478,2.60132 -0.45755,0.89844 -0.90004,1.7673 -1.32456,2.60088 -0.46425,0.9116 -0.90701,1.781 -1.32449,2.60076 -0.47622,0.93509 -0.91954,1.8056 -1.32435,2.60046 -0.50518,0.99197 -0.95036,1.86613 -1.32461,2.601 -0.8414,1.65216 -1.32426,2.60029 -1.32426,2.60029 0,0 1.05624,0 2.56221,0 0.76503,0 1.64611,0 2.56374,0 0.84399,0 1.7189,0 2.56286,0 0.91692,0 1.79731,0 2.56184,0 1.50633,0 2.56288,0 2.56288,0 0,0 0.5735,-1.12961 1.34623,-2.65167 0.41134,-0.81021 0.87913,-1.73161 1.34693,-2.65303 0.46785,-0.92154 0.93572,-1.84308 1.34711,-2.6534 0.77278,-1.52213 1.34631,-2.65182 1.34631,-2.65182 0,0 1.15671,0 2.9587,0 0.85799,0 1.86226,0 2.95762,0 0.93194,0 1.92981,0 2.95961,0 0.96752,0 1.96323,0 2.95893,0 0.99529,0 1.99057,0 2.95769,0 1.02977,0 2.0276,0 2.95951,0 1.09519,0 2.09933,0 2.95723,0 1.80217,0 2.95901,0 2.95901,0 0,0 0.53045,1.13046 1.24505,2.65338 0.38017,0.81021 0.81248,1.73151 1.24476,2.65276 0.43203,0.92072 0.86403,1.84139 1.24396,2.65108 0.71444,1.52258 1.24473,2.6527 1.24473,2.6527 m -22.77054,-22.036 c 0,0 0.53149,-1.04951 1.28927,-2.54589 0.38472,-0.7597 0.82777,-1.63458 1.28921,-2.54578 0.42473,-0.8387 0.86504,-1.70818 1.28979,-2.54692 0.46146,-0.91126 0.90456,-1.78624 1.28936,-2.54608 0.75814,-1.4971 1.28995,-2.54725 1.28995,-2.54725 0,0 0.49112,1.04951 1.19135,2.54589 0.35571,0.76016 0.76538,1.63563 1.19205,2.54741 0.39243,0.83862 0.79923,1.70795 1.19165,2.54654 0.42634,0.91108 0.83569,1.78586 1.19117,2.54552 0.7004,1.49673 1.19166,2.54656 1.19166,2.54656 0,0 -1.0226,0 -2.48061,0 -0.74067,0 -1.59369,0 -2.48209,0 -0.81712,0 -1.66416,0 -2.48125,0 -0.88771,0 -1.74007,0 -2.48025,0 -1.45835,0 -2.48126,0 -2.48126,0" />
            <path
               inkscape:connector-curvature="0"
               id="path3848"
               style="fill:#e18936;fill-opacity:1"
               d="m 476.97994,280.6188 c 0,0 0.25056,0.0816 0.25056,0.0816 0.89373,0.30036 1.72866,0.61497 2.50479,0.94384 0.87711,0.37165 1.67913,0.76151 2.40606,1.16956 0.84018,0.47163 1.58006,0.96758 2.21963,1.48785 0.76322,0.62089 1.35567,1.26172 1.77735,1.92249 0.50791,0.79591 0.76806,1.62074 0.78044,2.47451 0.0203,0.51548 -0.12976,1.12112 -0.45013,1.8169 -0.22915,0.49766 -0.54542,1.04143 -0.94882,1.63133 -0.53003,0.77503 -1.27312,1.36021 -2.22928,1.75554 -0.78913,0.32627 -1.72339,0.52323 -2.80277,0.59088 -0.5923,0.0568 -1.3218,0.0416 -2.18849,-0.0457 -0.64663,-0.0651 -1.36964,-0.17039 -2.16901,-0.31574 -0.663,-0.12056 -1.37853,-0.26871 -2.14659,-0.44445 -0.84851,-0.19414 -1.70792,-0.48929 -2.57824,-0.88546 -0.78649,-0.35801 -1.58188,-0.79851 -2.38617,-1.3215 -0.72546,-0.47174 -1.45817,-1.01059 -2.19812,-1.61656 -0.67237,-0.55062 -1.35073,-1.15666 -2.03506,-1.81811 0,0 -0.90768,0.8348 -2.13047,1.95942 -0.65055,0.59832 -1.39028,1.27866 -2.12998,1.95897 -0.73927,0.67992 -1.4785,1.3598 -2.12862,1.95772 -1.22252,1.12437 -2.12993,1.95892 -2.12993,1.95892 0.64969,0.67002 1.31571,1.30705 1.99807,1.91108 0.69715,0.61712 1.41135,1.19979 2.1426,1.74803 0.74258,0.55673 1.50274,1.07795 2.28049,1.56365 0.7838,0.48947 1.58545,0.94288 2.40497,1.36021 0.82081,0.418 1.65954,0.79982 2.51619,1.14545 0.85081,0.34327 1.71929,0.65086 2.60545,0.92275 0.98782,0.28004 1.93496,0.51351 2.84142,0.7004 1.01431,0.20912 1.97768,0.35993 2.89011,0.45241 0.8023,0.0813 1.55847,0.14175 2.26849,0.18127 0.81902,0.0456 1.57665,0.0634 2.27289,0.0534 0.86313,-0.003 1.70741,-0.0598 2.53284,-0.16928 0.8494,-0.11271 1.67884,-0.28165 2.48831,-0.50683 0.81743,-0.22738 1.61449,-0.5121 2.39121,-0.85417 0.7676,-0.33806 1.50361,-0.72526 2.20806,-1.16162 0.70623,-0.43745 1.38072,-0.92431 2.02347,-1.46057 0.63156,-0.52691 1.23248,-1.10151 1.80276,-1.7238 0.48537,-0.53199 0.93507,-1.08278 1.3491,-1.6524 0.42073,-0.57882 0.80463,-1.17707 1.1517,-1.79475 0.34843,-0.6201 0.65975,-1.25977 0.93394,-1.91902 0.26676,-0.64144 0.49056,-1.28614 0.67142,-1.93412 0.18547,-0.66449 0.32577,-1.33241 0.42091,-2.00378 0.0959,-0.67664 0.14589,-1.35677 0.15002,-2.04039 -0.001,-0.67922 -0.0446,-1.34945 -0.13083,-2.01071 -0.0872,-0.66848 -0.2178,-1.32778 -0.39191,-1.97789 -0.17276,-0.64506 -0.38829,-1.28109 -0.64654,-1.90807 -0.26602,-0.64576 -0.57496,-1.27713 -0.92683,-1.89413 -0.3436,-0.60248 -0.72813,-1.19125 -1.15359,-1.76631 -0.40995,-0.5541 -0.85792,-1.09548 -1.34388,-1.62412 -0.56822,-0.59875 -1.18224,-1.17439 -1.84207,-1.72693 -0.63027,-0.52778 -1.30233,-1.03449 -2.01619,-1.52011 -0.6782,-0.46138 -1.39413,-0.90372 -2.14779,-1.32704 -0.71479,-0.4015 -1.46353,-0.78588 -2.2462,-1.15315 -0.7425,-0.34842 -1.51555,-0.68143 -2.31914,-0.99905 -0.76379,-0.30188 -1.55517,-0.58985 -2.37414,-0.8639 -0.2471,-0.0816 -0.50463,-0.1632 -0.77256,-0.24485 -0.26798,-0.0816 -0.56726,-0.16319 -0.89783,-0.24484 -0.72173,-0.17248 -1.38872,-0.35559 -2.00097,-0.54931 -0.72394,-0.22907 -1.37135,-0.473 -1.94223,-0.73178 -0.71674,-0.3249 -1.31285,-0.67321 -1.78832,-1.04494 -0.5821,-0.45503 -1.02187,-0.97521 -1.31932,-1.56057 -0.30272,-0.59573 -0.45803,-1.25895 -0.46592,-1.98967 -0.0261,-0.92663 0.0679,-1.64416 0.28188,-2.15259 0.214,-0.50835 0.45412,-0.87902 0.72036,-1.112 0.41404,-0.38415 0.86084,-0.71326 1.3404,-0.98733 0.47769,-0.273 0.98788,-0.49139 1.53058,-0.65517 1.08747,-0.32812 1.85654,-0.48794 2.30723,-0.47949 0.73264,0.005 1.42836,0.0394 2.08716,0.10436 0.73348,0.0724 1.4212,0.18219 2.06314,0.32946 0.72045,0.16528 1.38324,0.37774 1.98839,0.63738 0.85445,0.36667 1.73191,0.80212 2.63237,1.30637 0.81581,0.45685 1.65051,0.97016 2.50408,1.53994 0,0 2.08799,1.30584 2.08799,1.30584 0,0 0.64961,-1.03481 1.52475,-2.42886 0.46558,-0.74167 0.995,-1.58501 1.52439,-2.42831 0.52909,-0.84281 1.05814,-1.68558 1.52342,-2.42676 0.87494,-1.39374 1.52436,-2.42824 1.52436,-2.42824 0,0 -1.92095,-1.22422 -1.92095,-1.22422 -0.7264,-0.49896 -1.49362,-0.98209 -2.30165,-1.44941 -0.7631,-0.44133 -1.5626,-0.86855 -2.3985,-1.28167 -0.79141,-0.39112 -1.61544,-0.76959 -2.47209,-1.13542 -0.77486,-0.33086 -1.60946,-0.61741 -2.5038,-0.85967 -0.81381,-0.22044 -1.67708,-0.40419 -2.58982,-0.55127 -0.83493,-0.13454 -1.71125,-0.23838 -2.62897,-0.31153 -0.84623,-0.0675 -1.72765,-0.10881 -2.64427,-0.12407 -0.63648,-0.0161 -1.34951,0.0346 -2.13912,0.15224 -0.64893,0.0967 -1.34957,0.23847 -2.10193,0.42543 -0.64967,0.16145 -1.33789,0.35656 -2.06468,0.58534 -0.90513,0.28496 -1.79117,0.65197 -2.65813,1.10105 -0.83182,0.43088 -1.64607,0.93731 -2.44275,1.51928 -0.75132,0.54884 -1.48702,1.16487 -2.20708,1.84809 -0.49537,0.51144 -0.94853,1.04489 -1.35947,1.60032 -0.41985,0.56748 -0.79564,1.15791 -1.12736,1.77131 -0.33237,0.61459 -0.6205,1.25224 -0.86439,1.91293 -0.24871,0.67376 -0.44774,1.36668 -0.5971,2.07879 -0.14598,0.69602 -0.2445,1.41035 -0.29555,2.14301 -0.0491,0.70458 -0.0543,1.4261 -0.0156,2.16456 0.042,0.88264 0.14305,1.73566 0.30307,2.55905 0.16698,0.85915 0.3982,1.68605 0.69366,2.4807 0.30069,0.80874 0.66793,1.58407 1.1017,2.32599 0.43665,0.74687 0.93701,1.45504 1.50108,2.12453 0.54987,0.65263 1.16027,1.26849 1.83122,1.84758 0.64022,0.55257 1.33557,1.07167 2.08604,1.55729 0.81594,0.51671 1.61882,0.97188 2.40864,1.36553 0.8658,0.43151 1.71592,0.78909 2.55033,1.07272 0.70195,0.23863 1.34631,0.44666 1.93309,0.62407 0.74699,0.22585 1.40066,0.4021 1.96101,0.52874 0,0 0.41759,0.0816 0.41759,0.0816" />
          </g>
          <rect
             ry="1.2626907"
             y="238.17923"
             x="290.92392"
             height="2.5253813"
             width="32.324883"
             id="rect3955"
             style="fill:none;stroke:none" />
          <rect
             ry="1.2626907"
             y="258.88736"
             x="505.07626"
             height="21.718279"
             width="4.0406103"
             id="rect3959"
             style="fill:none;stroke:none" />
          <rect
             ry="1.2626907"
             y="255.35182"
             x="146.47212"
             height="28.789347"
             width="2.5253813"
             id="rect3966"
             style="fill:none;stroke:none" />
        </g>
      </g>
      <rect
         ry="0.89285713"
         y="526.6189"
         x="478.67368"
         height="1.7857143"
         width="24.464285"
         id="rect4129"
         style="fill:none;stroke:none" />
    </g>
  </g>
</svg>
